<svg width="40" height="40" viewBox="0 0 40 40" fill="none" xmlns="http://www.w3.org/2000/svg">
<rect width="40" height="40" rx="20" fill="#F68C1F"/>
<path d="M23.6883 20.7633C23.8879 20.5605 24 20.286 24 20C24 19.714 23.8879 19.4395 23.6883 19.2367L17.793 13.2817C17.5894 13.0947 17.3225 12.9939 17.0474 13.0003C16.7723 13.0066 16.5102 13.1196 16.3153 13.3158C16.1204 13.512 16.0076 13.7763 16.0004 14.0542C15.9931 14.332 16.0919 14.602 16.2763 14.8083L21.4159 20L16.2763 25.1917C16.0919 25.398 15.9931 25.668 16.0004 25.9458C16.0076 26.2237 16.1204 26.488 16.3153 26.6842C16.5102 26.8804 16.7723 26.9934 17.0474 26.9997C17.3225 27.0061 17.5894 26.9053 17.793 26.7183L23.6883 20.7633Z" fill="white"/>
</svg>
