<svg width="30" height="30" viewBox="0 0 30 30" fill="none" xmlns="http://www.w3.org/2000/svg">
<g clip-path="url(#clip0_1_71679)">
<path d="M4.33 25.5378C4.35 25.5628 4.37 25.5878 4.395 25.6128C4.415 25.6328 4.44 25.6528 4.465 25.6678C4.465 25.6678 4.47 25.6778 4.475 25.6778C7.165 28.3328 10.84 29.9778 14.9 29.9978C14.915 30.0028 14.93 30.0028 14.95 30.0028C14.965 30.0078 14.985 30.0078 15 30.0078C15.015 30.0078 15.035 30.0078 15.05 30.0028C15.07 30.0028 15.085 30.0028 15.1 29.9978C19.18 29.9778 22.875 28.3128 25.565 25.6428C25.58 25.6328 25.59 25.6228 25.6 25.6128C25.625 25.5878 25.645 25.5628 25.665 25.5378C28.35 22.8278 30 19.1078 30 15.0078V15.0028C30 10.9028 28.345 7.18281 25.665 4.47781C25.646 4.45215 25.6242 4.42867 25.6 4.40781C25.5944 4.39716 25.5857 4.38845 25.575 4.38281C25.575 4.37948 25.5733 4.37781 25.57 4.37781C22.86 1.67781 19.12 0.0078125 15 0.0078125C10.88 0.0078125 7.185 1.65781 4.475 4.33281C4.475 4.33281 4.475 4.33781 4.47 4.33781C4.445 4.35781 4.42 4.37781 4.395 4.40281C4.37 4.42781 4.35 4.45281 4.33 4.47781C4.33 4.48281 4.325 4.48281 4.325 4.48281C1.65 7.18781 0 10.9078 0 15.0028V15.0078C0 19.1078 1.65 22.8228 4.325 25.5328C4.325 25.5328 4.33 25.5328 4.33 25.5378ZM15.5 28.9878V25.5378C17.965 25.4278 20.275 24.4728 22.095 22.8178L24.53 25.2478C22.145 27.4728 18.98 28.8728 15.5 28.9878ZM25.24 5.47281C27.465 7.85781 28.865 11.0228 28.985 14.5028H25.525C25.415 12.0378 24.46 9.72781 22.805 7.90781L25.24 5.47281ZM14.5 1.01781V4.47281C12.04 4.58781 9.73 5.54281 7.9 7.20281L5.465 4.76781C7.85 2.54281 11.015 1.13781 14.5 1.01781ZM8.245 8.25781C10.045 6.46781 12.425 5.47781 14.95 5.46281H14.96C14.975 5.46781 14.985 5.46781 15 5.46781C15.015 5.46781 15.025 5.46781 15.04 5.46281H15.05C17.57 5.47781 19.94 6.45781 21.725 8.23281L21.73 8.23781L21.75 8.25781C21.755 8.26281 21.765 8.27281 21.765 8.27781C23.555 10.0728 24.54 12.4628 24.54 15.0028C24.54 17.5428 23.55 19.9528 21.75 21.7578L21.745 21.7628C19.9702 23.5417 17.5628 24.5449 15.05 24.5528H15.04C15.025 24.5478 15.015 24.5478 15 24.5478C14.985 24.5478 14.975 24.5478 14.96 24.5528H14.95C12.425 24.5378 10.045 23.5478 8.245 21.7578C6.445 19.9528 5.455 17.5528 5.455 15.0028C5.455 12.4528 6.445 10.0578 8.245 8.25781ZM4.47 15.5028C4.58 17.9678 5.535 20.2778 7.195 22.1078L4.76 24.5428C2.535 22.1578 1.13 18.9928 1.015 15.5028H4.47Z" fill="white"/>
<path d="M12.7537 19.1632C13.1937 19.1632 13.6337 19.0882 14.0487 18.9332L13.2137 21.2132C13.1587 21.3682 13.1787 21.5382 13.2737 21.6732C13.3687 21.8032 13.5187 21.8832 13.6837 21.8832H16.3137C16.3938 21.8837 16.4729 21.8648 16.5443 21.8283C16.6157 21.7917 16.6772 21.7385 16.7237 21.6732C16.8187 21.5382 16.8387 21.3682 16.7837 21.2132L15.9487 18.9332C17.2787 19.4232 18.8337 19.1332 19.8887 18.0732C21.3237 16.6432 21.3437 14.2932 19.9287 12.8332L15.3537 8.25822C15.1637 8.06822 14.8337 8.06822 14.6437 8.25822L10.0737 12.8332C10.0703 12.8332 10.067 12.8349 10.0637 12.8382C9.39 13.5341 9.01344 14.4647 9.01367 15.4332C9.01867 16.4332 9.40367 17.3732 10.1087 18.0732C10.4562 18.4199 10.8687 18.6947 11.3226 18.8817C11.7765 19.0688 12.2628 19.1644 12.7537 19.1632Z" fill="white"/>
</g>
<defs>
<clipPath id="clip0_1_71679">
<rect width="30" height="30" fill="white"/>
</clipPath>
</defs>
</svg>
